<mxfile host="Electron" modified="2023-05-28T08:55:56.133Z" agent="Mozilla/5.0 (Macintosh; Intel Mac OS X 10_15_7) AppleWebKit/537.36 (KHTML, like Gecko) draw.io/21.2.8 Chrome/112.0.5615.165 Electron/24.2.0 Safari/537.36" etag="nmg6v7oTo-EMKOjsNAxW" version="21.2.8" type="device">
  <diagram name="第 1 页" id="mUVo63RHdivYxhEqdBZR">
    <mxGraphModel dx="1434" dy="907" grid="1" gridSize="10" guides="1" tooltips="1" connect="1" arrows="1" fold="1" page="1" pageScale="1" pageWidth="827" pageHeight="1169" math="0" shadow="0">
      <root>
        <mxCell id="0" />
        <mxCell id="1" parent="0" />
        <mxCell id="Ywd4gSuSzT6GRjvdmcC7-2" value="" style="ellipse;whiteSpace=wrap;html=1;aspect=fixed;strokeWidth=3;" parent="1" vertex="1">
          <mxGeometry x="320" y="240" width="170" height="170" as="geometry" />
        </mxCell>
        <mxCell id="Ywd4gSuSzT6GRjvdmcC7-3" value="" style="endArrow=classic;html=1;rounded=0;entryX=0.712;entryY=0.024;entryDx=0;entryDy=0;entryPerimeter=0;strokeWidth=2;" parent="1" edge="1">
          <mxGeometry width="50" height="50" relative="1" as="geometry">
            <mxPoint x="413" y="198" as="sourcePoint" />
            <mxPoint x="414.03999999999996" y="242.07999999999993" as="targetPoint" />
          </mxGeometry>
        </mxCell>
        <mxCell id="Ywd4gSuSzT6GRjvdmcC7-4" value="" style="endArrow=classic;html=1;rounded=0;entryX=0.712;entryY=0.024;entryDx=0;entryDy=0;entryPerimeter=0;strokeWidth=2;" parent="1" edge="1">
          <mxGeometry width="50" height="50" relative="1" as="geometry">
            <mxPoint x="380" y="200" as="sourcePoint" />
            <mxPoint x="381" y="244" as="targetPoint" />
          </mxGeometry>
        </mxCell>
        <mxCell id="Ywd4gSuSzT6GRjvdmcC7-5" value="0" style="text;html=1;align=center;verticalAlign=middle;resizable=0;points=[];autosize=1;strokeColor=#d6b656;fillColor=#fff2cc;" parent="1" vertex="1">
          <mxGeometry x="415" y="197" width="30" height="30" as="geometry" />
        </mxCell>
        <mxCell id="Ywd4gSuSzT6GRjvdmcC7-6" value="2^32-1" style="text;html=1;align=center;verticalAlign=middle;resizable=0;points=[];autosize=1;strokeColor=#6c8ebf;fillColor=#dae8fc;" parent="1" vertex="1">
          <mxGeometry x="317" y="200" width="60" height="30" as="geometry" />
        </mxCell>
        <mxCell id="Ywd4gSuSzT6GRjvdmcC7-8" value="图1. 哈希环" style="text;html=1;align=center;verticalAlign=middle;resizable=0;points=[];autosize=1;strokeColor=none;fillColor=none;" parent="1" vertex="1">
          <mxGeometry x="360" y="433" width="80" height="30" as="geometry" />
        </mxCell>
      </root>
    </mxGraphModel>
  </diagram>
</mxfile>
